<svg xmlns="http://www.w3.org/2000/svg" xmlns:xlink="http://www.w3.org/1999/xlink" width="33" height="33" viewBox="0 0 33 33">
  <defs>
    <clipPath id="clip-path">
      <rect id="user_user_x_Background_Mask_" data-name="user / user_x (Background/Mask)" width="33" height="33" transform="translate(0 0)" fill="none"/>
    </clipPath>
  </defs>
  <g id="user_user_x" data-name="user / user_x" transform="translate(0 0)">
    <g id="user_user_x-2" data-name="user / user_x" transform="translate(0 0)">
      <rect id="user_user_x_Background_Mask_2" data-name="user / user_x (Background/Mask)" width="33" height="33" transform="translate(0 0)" fill="none"/>
      <g id="user_user_x-3" data-name="user / user_x" clip-path="url(#clip-path)">
        <path id="user_user_x-4" data-name="user / user_x" d="M2.651,19.885H0a7.953,7.953,0,0,1,15.906,0H13.255a5.3,5.3,0,1,0-10.6,0Zm21.6-4.367h0l-3.04-3.04-3.04,3.04-1.874-1.874,3.04-3.04L16.3,7.565l1.874-1.874,3.04,3.04,3.04-3.04,1.874,1.874-3.04,3.04,3.04,3.04L24.25,15.518ZM7.954,10.6a5.3,5.3,0,1,1,5.3-5.3A5.309,5.309,0,0,1,7.954,10.6Zm0-7.954A2.651,2.651,0,1,0,10.6,5.421l0,.532V5.3A2.654,2.654,0,0,0,7.954,2.651Z" transform="translate(2.651 5.302)" fill="#2e3a59"/>
      </g>
    </g>
  </g>
</svg>
