<svg xmlns="http://www.w3.org/2000/svg" width="1668.015" height="904.48" viewBox="0 0 1668.015 904.48">
  <g id="Group_1813" data-name="Group 1813" transform="translate(-29.857 -62.762)">
    <g id="Group_1738" data-name="Group 1738" transform="translate(30.357 63.274)">
      <path id="Path_1708" data-name="Path 1708" d="M238.326,897.3S95.93,810.567,52.593,673.974,24.731,302.362,264.64,238,606.7,422.911,606.7,422.911,591.264,349.067,673.278,355c0,0-75.837-178.268,134.1-264.933,224.966-92.868,366.5,72.041,408.72,244.2,0,0,344.045-145.415,350.236,153.447,0,0,83.581-39.179,116.085,61.74S1606.58,910.4,1583.363,922.781,238.326,897.3,238.326,897.3Z" transform="translate(-25.742 -63.274)" fill="#f4f4f4" stroke="rgba(0,0,0,0)" stroke-width="1"/>
      <g id="Group_1737" data-name="Group 1737" transform="translate(0 44.442)">
        <g id="Group_1722" data-name="Group 1722" transform="translate(59.307 308.4)">
          <circle id="Ellipse_73" data-name="Ellipse 73" cx="34.268" cy="34.268" r="34.268" transform="translate(0 56.753) rotate(-55.901)" fill="none" stroke="silver" stroke-miterlimit="10" stroke-width="1"/>
          <path id="Path_1709" data-name="Path 1709" d="M116.821,218.923,62.058,259a34.417,34.417,0,0,0,7.047,9.062l53.679-40.829A34.31,34.31,0,0,0,116.821,218.923Z" transform="translate(-44.674 -195.221)" fill="none" stroke="silver" stroke-miterlimit="10" stroke-width="1"/>
        </g>
        <g id="Group_1723" data-name="Group 1723" transform="translate(1079.773 24.614)">
          <circle id="Ellipse_74" data-name="Ellipse 74" cx="28.712" cy="28.712" r="28.712" transform="matrix(0.16, -0.987, 0.987, 0.16, 0, 56.688)" fill="none" stroke="silver" stroke-miterlimit="10" stroke-width="1"/>
          <path id="Path_1710" data-name="Path 1710" d="M525.725,97.157,479.843,130.74a28.813,28.813,0,0,0,5.905,7.591l44.975-34.207A28.7,28.7,0,0,0,525.725,97.157Z" transform="translate(-472.223 -84.244)" fill="none" stroke="silver" stroke-miterlimit="10" stroke-width="1"/>
        </g>
        <g id="Group_1724" data-name="Group 1724" transform="translate(1605.288 586.268)">
          <circle id="Ellipse_75" data-name="Ellipse 75" cx="24.937" cy="24.937" r="24.937" fill="none" stroke="silver" stroke-miterlimit="10" stroke-width="1"/>
          <path id="Path_1711" data-name="Path 1711" d="M734.993,327.108l-39.849,29.168a25,25,0,0,0,5.126,6.595l39.063-29.71A25.014,25.014,0,0,0,734.993,327.108Z" transform="translate(-692.185 -319.554)" fill="none" stroke="silver" stroke-miterlimit="10" stroke-width="1"/>
        </g>
        <path id="Path_1712" data-name="Path 1712" d="M671.906,219.745h-18.94v-18.94a5.3,5.3,0,0,0-10.6,0v18.94h-18.94a5.3,5.3,0,0,0-5.3,5.3h0a5.3,5.3,0,0,0,5.3,5.3h18.94v18.94a5.3,5.3,0,1,0,10.6,0v-18.94h18.94a5.3,5.3,0,0,0,5.3-5.3h0A5.3,5.3,0,0,0,671.906,219.745Z" transform="translate(803.796 79.944)" fill="silver" stroke="rgba(0,0,0,0)" stroke-width="1"/>
        <g id="Group_1727" data-name="Group 1727" transform="translate(637.468)">
          <g id="Group_1725" data-name="Group 1725">
            <rect id="Rectangle_597" data-name="Rectangle 597" width="126.5" height="88.224" rx="7.743" transform="translate(0 26.855)" fill="none" stroke="silver" stroke-miterlimit="10" stroke-width="1"/>
            <path id="Path_1713" data-name="Path 1713" d="M314.47,108.5a23.992,23.992,0,0,1,47.22,0h7.2a31.1,31.1,0,0,0-61.619,0Z" transform="translate(-274.831 -81.645)" fill="silver" stroke="rgba(0,0,0,0)" stroke-width="1"/>
          </g>
          <g id="Group_1726" data-name="Group 1726" transform="translate(34.682 42.399)">
            <circle id="Ellipse_76" data-name="Ellipse 76" cx="23.733" cy="23.733" r="23.733" transform="translate(0 46.185) rotate(-76.66)" fill="#f4f4f4" stroke="silver" stroke-miterlimit="10" stroke-width="1"/>
            <path id="Path_1714" data-name="Path 1714" d="M340.222,116.828h-9.21v-9.207a2.578,2.578,0,1,0-5.155,0v9.207h-9.21a2.578,2.578,0,0,0-2.579,2.579h0a2.578,2.578,0,0,0,2.579,2.579h9.21v9.21a2.578,2.578,0,0,0,5.155,0v-9.21h9.21a2.578,2.578,0,0,0,2.579-2.579h0A2.578,2.578,0,0,0,340.222,116.828Z" transform="translate(-299.866 -90.839)" fill="silver" stroke="rgba(0,0,0,0)" stroke-width="1"/>
          </g>
        </g>
        <g id="Group_1730" data-name="Group 1730" transform="translate(1432.977 416.839)">
          <g id="Group_1728" data-name="Group 1728">
            <rect id="Rectangle_598" data-name="Rectangle 598" width="126.5" height="88.225" rx="7.743" transform="translate(0 26.854)" fill="none" stroke="silver" stroke-miterlimit="10" stroke-width="1"/>
            <path id="Path_1715" data-name="Path 1715" d="M643.3,280.805a23.992,23.992,0,0,1,47.22,0h7.2a31.1,31.1,0,0,0-61.621,0Z" transform="translate(-603.664 -253.95)" fill="silver" stroke="rgba(0,0,0,0)" stroke-width="1"/>
          </g>
          <g id="Group_1729" data-name="Group 1729" transform="translate(39.517 47.234)">
            <circle id="Ellipse_77" data-name="Ellipse 77" cx="23.733" cy="23.733" r="23.733" fill="#f4f4f4" stroke="silver" stroke-miterlimit="10" stroke-width="1"/>
            <path id="Path_1716" data-name="Path 1716" d="M669.054,289.133h-9.207v-9.21a2.579,2.579,0,0,0-5.158,0v9.21h-9.21a2.58,2.58,0,0,0-2.579,2.579h0a2.581,2.581,0,0,0,2.579,2.579h9.21v9.21a2.579,2.579,0,0,0,5.158,0v-9.21h9.207a2.58,2.58,0,0,0,2.579-2.579h0A2.578,2.578,0,0,0,669.054,289.133Z" transform="translate(-633.534 -267.979)" fill="silver" stroke="rgba(0,0,0,0)" stroke-width="1"/>
          </g>
        </g>
        <path id="Path_1717" data-name="Path 1717" d="M313.929,263.507H296.682V246.261a4.829,4.829,0,1,0-9.657,0v17.246H269.778a4.828,4.828,0,0,0-4.826,4.829h0a4.828,4.828,0,0,0,4.826,4.829h17.246v17.246a4.829,4.829,0,1,0,9.657,0V273.165h17.246a4.83,4.83,0,0,0,4.829-4.829h0A4.83,4.83,0,0,0,313.929,263.507Z" transform="translate(302.578 145.124)" fill="silver" stroke="rgba(0,0,0,0)" stroke-width="1"/>
        <path id="Path_1718" data-name="Path 1718" d="M145.1,167.145H132.461V154.5a3.54,3.54,0,0,0-7.081,0v12.645H112.738a3.54,3.54,0,0,0-3.542,3.539h0a3.54,3.54,0,0,0,3.542,3.539H125.38v12.645a3.54,3.54,0,0,0,7.081,0V174.224H145.1a3.539,3.539,0,0,0,3.539-3.539h0A3.539,3.539,0,0,0,145.1,167.145Z" transform="translate(81.531 16.728)" fill="silver" stroke="rgba(0,0,0,0)" stroke-width="1"/>
        <path id="Path_1719" data-name="Path 1719" d="M165.986,247.263H150.247V231.523a4.407,4.407,0,0,0-8.813,0v15.739H125.694a4.406,4.406,0,0,0-4.405,4.408h0a4.4,4.4,0,0,0,4.405,4.405h15.739v15.739a4.407,4.407,0,1,0,8.813,0V256.076h15.739a4.407,4.407,0,0,0,4.408-4.405h0A4.409,4.409,0,0,0,165.986,247.263Z" transform="translate(98.693 124.809)" fill="silver" stroke="rgba(0,0,0,0)" stroke-width="1"/>
        <path id="Path_1720" data-name="Path 1720" d="M452.1,127.321H439.159V114.378a3.624,3.624,0,0,0-7.248,0v12.943h-12.94a3.625,3.625,0,0,0-3.624,3.624h0a3.625,3.625,0,0,0,3.624,3.624h12.94v12.94a3.624,3.624,0,0,0,7.248,0v-12.94H452.1a3.623,3.623,0,0,0,3.621-3.624h0A3.623,3.623,0,0,0,452.1,127.321Z" transform="translate(516.018 -40.329)" fill="silver" stroke="rgba(0,0,0,0)" stroke-width="1"/>
        <path id="Path_1721" data-name="Path 1721" d="M494.045,287.244s-66.371-49.41-46.086-73.72,48.945,11,48.945,11,15.527-27.16,37.043-14.663C565.8,228.359,494.045,287.244,494.045,287.244Z" transform="translate(556.83 93.394)" fill="none" stroke="silver" stroke-miterlimit="10" stroke-width="1"/>
        <g id="Group_1733" data-name="Group 1733" transform="translate(655.386 261.679)">
          <g id="Group_1731" data-name="Group 1731" transform="translate(6.424 7.881)">
            <path id="Path_1722" data-name="Path 1722" d="M357.084,246.231h0a14.284,14.284,0,0,1-20.205,0l-28.771-28.769a14.289,14.289,0,0,1,0-20.205h0a14.284,14.284,0,0,1,20.205,0l28.771,28.769A14.289,14.289,0,0,1,357.084,246.231Z" transform="translate(-303.923 -193.071)" fill="#f4f4f4" stroke="silver" stroke-miterlimit="10" stroke-width="1"/>
            <path id="Path_1723" data-name="Path 1723" d="M311.6,220.952l14.912,14.909a13.542,13.542,0,0,0,19.155,0l1.05-1.05a13.547,13.547,0,0,0,0-19.155L331.8,200.747Z" transform="translate(-293.03 -182.177)" fill="silver" stroke="rgba(0,0,0,0)" stroke-width="1"/>
          </g>
          <g id="Group_1732" data-name="Group 1732">
            <path id="Path_1724" data-name="Path 1724" d="M315.553,259.074h0a14.287,14.287,0,0,1-14.285-14.288V204.1a14.286,14.286,0,0,1,14.285-14.285h0A14.287,14.287,0,0,1,329.841,204.1v40.688A14.287,14.287,0,0,1,315.553,259.074Z" transform="translate(-301.268 -189.813)" fill="#f4f4f4" stroke="silver" stroke-miterlimit="10" stroke-width="1"/>
            <path id="Path_1725" data-name="Path 1725" d="M301.268,204.128v21.086a13.544,13.544,0,0,0,13.543,13.545H316.3a13.546,13.546,0,0,0,13.545-13.545V204.128Z" transform="translate(-301.268 -169.497)" fill="silver" stroke="rgba(0,0,0,0)" stroke-width="1"/>
          </g>
        </g>
        <g id="Group_1736" data-name="Group 1736" transform="translate(0 482.793)">
          <g id="Group_1734" data-name="Group 1734" transform="translate(9.162 14.232)">
            <path id="Path_1726" data-name="Path 1726" d="M91.815,329.77h0a13.69,13.69,0,0,1-18.962,3.9L40.3,312.217a13.691,13.691,0,0,1-3.9-18.964h0a13.693,13.693,0,0,1,18.964-3.9l32.55,21.451A13.691,13.691,0,0,1,91.815,329.77Z" transform="translate(-34.144 -287.096)" fill="#f4f4f4" stroke="silver" stroke-miterlimit="10" stroke-width="1"/>
            <path id="Path_1727" data-name="Path 1727" d="M43.417,315.323l16.869,11.119a12.981,12.981,0,0,0,17.979-3.7l.781-1.188a12.979,12.979,0,0,0-3.694-17.977L58.481,292.464Z" transform="translate(-20.984 -279.478)" fill="silver" stroke="rgba(0,0,0,0)" stroke-width="1"/>
          </g>
          <g id="Group_1735" data-name="Group 1735">
            <path id="Path_1728" data-name="Path 1728" d="M44.047,347.574h0a13.689,13.689,0,0,1-13.69-13.688V294.9a13.689,13.689,0,0,1,13.69-13.688h0A13.687,13.687,0,0,1,57.735,294.9v38.985A13.687,13.687,0,0,1,44.047,347.574Z" transform="translate(-30.357 -281.213)" fill="#f4f4f4" stroke="silver" stroke-miterlimit="10" stroke-width="1"/>
            <path id="Path_1729" data-name="Path 1729" d="M30.357,294.928v20.205A12.979,12.979,0,0,0,43.336,328.11h1.422a12.976,12.976,0,0,0,12.977-12.977V294.928Z" transform="translate(-30.357 -261.749)" fill="silver" stroke="rgba(0,0,0,0)" stroke-width="1"/>
          </g>
        </g>
      </g>
    </g>
    <g id="Group_1812" data-name="Group 1812" transform="translate(57.206 215.045)">
      <line id="Line_1" data-name="Line 1" x2="1640.665" transform="translate(0 708.414)" fill="none" stroke="#262433" stroke-miterlimit="10" stroke-width="0.25"/>
      <g id="Group_1811" data-name="Group 1811" transform="translate(56.477)">
        <g id="Group_1759" data-name="Group 1759" transform="translate(0 46.612)">
          <g id="Group_1739" data-name="Group 1739" transform="translate(0 218.743)">
            <path id="Path_1730" data-name="Path 1730" d="M219.235,678.756c10.836-128.636,38.373-382.978,90.3-443.058,0,0-159.848,64.2-218.664,288.119-18.5,70.435-25.358,120.028-26.072,154.94Z" transform="translate(-64.801 -235.698)" fill="#fff" stroke="#262433" stroke-miterlimit="10" stroke-width="1"/>
            <path id="Path_1731" data-name="Path 1731" d="M448.94,678.756c-.714-34.911-7.572-84.5-26.072-154.94C364.051,299.9,204.2,235.7,204.2,235.7c51.926,60.081,79.466,314.422,90.3,443.058Z" transform="translate(133.04 -235.698)" fill="#fff" stroke="#262433" stroke-miterlimit="10" stroke-width="1"/>
          </g>
          <g id="Group_1744" data-name="Group 1744" transform="translate(100.999 204.833)">
            <path id="Path_1732" data-name="Path 1732" d="M489.636,686.916q.112-7.345.119-14.747c0-244.232-85.785-442.221-191.6-442.221s-191.6,197.989-191.6,442.221q0,7.406.116,14.747Z" transform="translate(-106.55 -229.948)" fill="#1db5e4" stroke="#262433" stroke-miterlimit="10" stroke-width="1"/>
            <g id="Group_1743" data-name="Group 1743" transform="translate(0 31.152)">
              <g id="Group_1741" data-name="Group 1741" transform="translate(0 0.397)">
                <path id="Path_1733" data-name="Path 1733" d="M226.968,242.989C156.4,308.208,106.55,467.49,106.55,653.661q0,7.406.116,14.747H224.822Z" transform="translate(-106.55 -242.989)" fill="#fff" stroke="#262433" stroke-miterlimit="10" stroke-width="1"/>
                <g id="Group_1740" data-name="Group 1740" transform="translate(54.572)">
                  <path id="Path_1734" data-name="Path 1734" d="M194.954,242.989a187.457,187.457,0,0,0-14.464,15.03L129.108,408.735l30.956,6.706,6.382,252.968h26.362Z" transform="translate(-129.108 -242.989)" fill="#f4f4f4" stroke="#262433" stroke-miterlimit="10" stroke-width="1"/>
                </g>
              </g>
              <g id="Group_1742" data-name="Group 1742" transform="translate(262.364)">
                <path id="Path_1735" data-name="Path 1735" d="M226.52,664.74H331.711q.112-7.345.119-14.747c0-180.474-46.848-335.675-114-404.419Z" transform="translate(-210.989 -238.924)" fill="#fff" stroke="#262433" stroke-miterlimit="10" stroke-width="1"/>
                <path id="Path_1736" data-name="Path 1736" d="M215,242.825V668.642H241.96l6.382-252.968,30.956-6.706L226.681,254.623C222.856,250.407,218.964,246.459,215,242.825Z" transform="translate(-215.001 -242.825)" fill="#f4f4f4" stroke="#262433" stroke-miterlimit="10" stroke-width="1"/>
              </g>
            </g>
          </g>
          <g id="Group_1750" data-name="Group 1750" transform="translate(173.183 195.957)">
            <path id="Path_1737" data-name="Path 1737" d="M342.9,350.691c-7.993-70.614-49.332-124.412-99.126-124.412-55.516,0-100.52,66.874-100.52,149.366q0,3.219.09,6.408" transform="translate(-126.642 -226.279)" fill="none" stroke="#262433" stroke-miterlimit="10" stroke-width="0.5"/>
            <g id="Group_1745" data-name="Group 1745" transform="translate(0 153.472)">
              <ellipse id="Ellipse_78" data-name="Ellipse 78" cx="20.998" cy="20.743" rx="20.998" ry="20.743" fill="silver" stroke="#262433" stroke-miterlimit="10" stroke-width="1"/>
              <path id="Path_1738" data-name="Path 1738" d="M140.389,304.852a11.32,11.32,0,1,0,11.319-11.182A11.25,11.25,0,0,0,140.389,304.852Z" transform="translate(-130.71 -284.108)" fill="#f4f4f4" stroke="#262433" stroke-miterlimit="10" stroke-width="1"/>
            </g>
            <g id="Group_1749" data-name="Group 1749" transform="translate(168.757 126.313)">
              <path id="Path_1739" data-name="Path 1739" d="M279.968,353.032a94.122,94.122,0,0,0,1.916-14.752c1.643-32.033-12.778-58.789-32.212-59.761s-36.518,24.209-38.158,56.241a92.032,92.032,0,0,0,1.188,20.488" transform="translate(-198.707 -278.492)" fill="none" stroke="#262433" stroke-miterlimit="10" stroke-width="0.5"/>
              <g id="Group_1748" data-name="Group 1748" transform="translate(0 71.018)">
                <g id="Group_1746" data-name="Group 1746" transform="translate(12.679)">
                  <path id="Path_1740" data-name="Path 1740" d="M285.276,366.465s-15.853,18.333-40.594,3.055-31.411-44.67-33.3-61.673" transform="translate(-211.387 -307.848)" fill="none" stroke="#262433" stroke-miterlimit="10" stroke-width="1"/>
                  <path id="Path_1741" data-name="Path 1741" d="M240.581,333.891a5.111,5.111,0,1,0,5.109-5.049A5.08,5.08,0,0,0,240.581,333.891Z" transform="translate(-169.955 -278.053)" fill="#fff" stroke="#262433" stroke-miterlimit="10" stroke-width="1"/>
                </g>
                <g id="Group_1747" data-name="Group 1747" transform="translate(0 0.677)">
                  <path id="Path_1742" data-name="Path 1742" d="M209.007,365.8s15.611,18.531,40.551,3.573,31.991-44.266,34.1-61.242" transform="translate(-202.085 -308.128)" fill="none" stroke="#262433" stroke-miterlimit="10" stroke-width="1"/>
                  <path id="Path_1743" data-name="Path 1743" d="M216.367,333.834a5.111,5.111,0,1,1-5.044-5.114A5.081,5.081,0,0,1,216.367,333.834Z" transform="translate(-206.146 -278.904)" fill="#fff" stroke="#262433" stroke-miterlimit="10" stroke-width="1"/>
                </g>
              </g>
            </g>
          </g>
          <g id="Group_1758" data-name="Group 1758" transform="translate(190.588)">
            <path id="Path_1744" data-name="Path 1744" d="M280.169,147.661s-73.06-21.226-114.336,63.027c-31.684,64.677-22.077,109.921-15.9,127.453a12.074,12.074,0,0,0,10.935,8.288l171.189,4.846a12.087,12.087,0,0,0,11.859-9.222C353.54,306.212,379.813,179.415,280.169,147.661Z" transform="translate(-143.583 -145.278)" fill="#262433" stroke="rgba(0,0,0,0)" stroke-width="1"/>
            <g id="Group_1757" data-name="Group 1757" transform="translate(30.933 16.362)">
              <path id="Path_1745" data-name="Path 1745" d="M156.369,210.278a26,26,0,1,0,25.994-25.784A25.888,25.888,0,0,0,156.369,210.278Z" transform="translate(-156.369 -105.985)" fill="none" stroke="#262433" stroke-miterlimit="10" stroke-width="2"/>
              <path id="Path_1746" data-name="Path 1746" d="M263.335,162.082H230.683c-21.7,0-39.467,20.22-39.467,44.934v50.612c0,1.427.075,2.835.191,4.229a20.06,20.06,0,0,0-.559,4.635v27.813a19.786,19.786,0,0,0-.394,3.631l-.336,35.3a119.058,119.058,0,0,0-29.323,14.106l59.471,55.946,48.548-61.643a111.344,111.344,0,0,0-24.465-9.759,19.9,19.9,0,0,0,.106-2.056V302.562h18.879c21.707,0,39.467-20.22,39.467-44.934V207.016C302.8,182.3,285.042,162.082,263.335,162.082Z" transform="translate(-150.088 -137.792)" fill="#f4f4f4" stroke="#262433" stroke-miterlimit="10" stroke-width="1"/>
              <g id="Group_1753" data-name="Group 1753" transform="translate(84.84 70.632)">
                <g id="Group_1751" data-name="Group 1751" transform="translate(2.537 7.768)">
                  <circle id="Ellipse_79" data-name="Ellipse 79" cx="7.36" cy="7.36" r="7.36" fill="#262433" stroke="rgba(0,0,0,0)" stroke-width="1"/>
                  <path id="Path_1747" data-name="Path 1747" d="M212.4,190.732a6.283,6.283,0,1,0,6.283-6.283A6.284,6.284,0,0,0,212.4,190.732Z" transform="translate(-164.221 -184.449)" fill="#262433" stroke="rgba(0,0,0,0)" stroke-width="1"/>
                </g>
                <line id="Line_2" data-name="Line 2" x1="0.239" y2="25.441" transform="translate(39.116 10.918)" fill="#262433" stroke="#262433" stroke-miterlimit="10" stroke-width="0.25"/>
                <g id="Group_1752" data-name="Group 1752">
                  <line id="Line_3" data-name="Line 3" y1="3.676" x2="9.355" fill="#262433" stroke="#262433" stroke-miterlimit="10" stroke-width="0.25"/>
                  <line id="Line_4" data-name="Line 4" y1="0.261" x2="10.047" transform="translate(51.979 1.708)" fill="#262433" stroke="#262433" stroke-miterlimit="10" stroke-width="0.25"/>
                </g>
              </g>
              <path id="Path_1748" data-name="Path 1748" d="M311.411,217.811s-28.885-8.857-45.919-36.339c0,0-15.521,40.882-66.554,63.869-66.787,30.085-33.375-51.78-14.883-72.934S296.966,124.943,311.411,217.811Z" transform="translate(-152.414 -152.042)" fill="#262433" stroke="rgba(0,0,0,0)" stroke-width="1"/>
              <g id="Group_1754" data-name="Group 1754" transform="translate(0 78.509)">
                <path id="Path_1749" data-name="Path 1749" d="M156.369,210.278a26,26,0,1,0,25.994-25.784A25.888,25.888,0,0,0,156.369,210.278Z" transform="translate(-156.369 -184.494)" fill="#f4f4f4" stroke="rgba(0,0,0,0)" stroke-width="1"/>
                <path id="Path_1750" data-name="Path 1750" d="M182.8,205.779s1.144-17.513-16.84-15.565" transform="translate(-142.75 -176.591)" fill="none" stroke="#262433" stroke-miterlimit="10" stroke-width="0.275"/>
              </g>
              <g id="Group_1756" data-name="Group 1756" transform="translate(9.118 197.453)">
                <g id="Group_1755" data-name="Group 1755">
                  <path id="Path_1751" data-name="Path 1751" d="M160.138,246.783l63.5,67.278,54.906-68.811a121.779,121.779,0,0,0-22.714-11.588l-32.407,47.784-42.571-46.02A126.117,126.117,0,0,0,160.138,246.783Z" transform="translate(-160.138 -233.661)" fill="#8ca7f4" stroke="#262433" stroke-miterlimit="10" stroke-width="1"/>
                </g>
              </g>
            </g>
            <line id="Line_5" data-name="Line 5" x2="11.861" y2="15.845" transform="translate(80.294 105.831)" fill="none" stroke="#262433" stroke-miterlimit="10" stroke-width="0.25"/>
            <line id="Line_6" data-name="Line 6" y1="19.366" x2="17.857" transform="translate(72.158 132.686)" fill="none" stroke="#262433" stroke-miterlimit="10" stroke-width="0.25"/>
          </g>
        </g>
        <g id="Group_1785" data-name="Group 1785" transform="translate(888.415 22.961)">
          <g id="Group_1781" data-name="Group 1781">
            <g id="Group_1760" data-name="Group 1760" transform="translate(0 232.331)">
              <path id="Path_1753" data-name="Path 1753" d="M432.037,678.756c.716-34.911,7.572-84.5,26.074-154.94C516.926,299.9,676.774,235.7,676.774,235.7c-51.928,60.081-79.466,314.422-90.3,443.058Z" transform="translate(-432.037 -225.634)" fill="#fff" stroke="#262433" stroke-miterlimit="10" stroke-width="1"/>
              <path id="Path_1754" data-name="Path 1754" d="M882.578,663.775c9.841-28.672,6.987-67.655-14.452-118.32-105.765-249.968-306-313.917-306-313.917l5.692,320.882Z" transform="translate(-247.421 -231.538)" fill="#fff" stroke="#262433" stroke-miterlimit="10" stroke-width="1"/>
            </g>
            <g id="Group_1765" data-name="Group 1765" transform="translate(97.779 228.484)">
              <path id="Path_1755" data-name="Path 1755" d="M855.541,686.916q.113-7.345.119-14.747c0-244.232-85.785-442.221-191.6-442.221s-191.6,197.989-191.6,442.221q0,7.406.116,14.747Z" transform="translate(-472.455 -229.948)" fill="#1db5e4" stroke="#262433" stroke-miterlimit="10" stroke-width="1"/>
              <g id="Group_1764" data-name="Group 1764" transform="translate(0 31.152)">
                <g id="Group_1762" data-name="Group 1762" transform="translate(262.785 0.397)">
                  <path id="Path_1756" data-name="Path 1756" d="M581.08,242.989c70.57,65.219,120.42,224.5,120.42,410.673q0,7.406-.119,14.747H583.226Z" transform="translate(-581.08 -242.989)" fill="#fff" stroke="#262433" stroke-miterlimit="10" stroke-width="1"/>
                  <g id="Group_1761" data-name="Group 1761">
                    <path id="Path_1757" data-name="Path 1757" d="M581.08,242.989a187.477,187.477,0,0,1,14.464,15.03l51.381,150.716-30.956,6.706-6.382,252.968H583.226Z" transform="translate(-581.08 -242.989)" fill="#f4f4f4" stroke="#262433" stroke-miterlimit="10" stroke-width="1"/>
                  </g>
                </g>
                <g id="Group_1763" data-name="Group 1763">
                  <path id="Path_1758" data-name="Path 1758" d="M577.762,664.74H472.571q-.109-7.345-.116-14.747c0-180.474,46.845-335.675,114-404.419Z" transform="translate(-472.455 -238.924)" fill="#fff" stroke="#262433" stroke-miterlimit="10" stroke-width="1"/>
                  <path id="Path_1759" data-name="Path 1759" d="M560.124,242.825V668.642H533.165l-6.382-252.968-30.956-6.706,52.618-154.344C552.271,250.407,556.164,246.459,560.124,242.825Z" transform="translate(-439.286 -242.825)" fill="#f4f4f4" stroke="#262433" stroke-miterlimit="10" stroke-width="1"/>
                </g>
              </g>
            </g>
            <g id="Group_1771" data-name="Group 1771" transform="translate(146.514 219.608)">
              <path id="Path_1760" data-name="Path 1760" d="M511.624,350.691c7.993-70.614,49.332-124.412,99.126-124.412,55.516,0,100.522,66.874,100.522,149.366q0,3.219-.092,6.408" transform="translate(-465.602 -226.279)" fill="none" stroke="#262433" stroke-miterlimit="10" stroke-width="0.5"/>
              <g id="Group_1766" data-name="Group 1766" transform="translate(220.288 153.472)">
                <ellipse id="Ellipse_80" data-name="Ellipse 80" cx="20.998" cy="20.743" rx="20.998" ry="20.743" fill="silver" stroke="#262433" stroke-miterlimit="10" stroke-width="1"/>
                <ellipse id="Ellipse_81" data-name="Ellipse 81" cx="11.318" cy="11.181" rx="11.318" ry="11.181" transform="translate(9.68 9.562)" fill="#f4f4f4" stroke="#262433" stroke-miterlimit="10" stroke-width="1"/>
              </g>
              <g id="Group_1770" data-name="Group 1770" transform="translate(0 126.313)">
                <path id="Path_1761" data-name="Path 1761" d="M498.869,353.032a94.1,94.1,0,0,1-1.916-14.752c-1.643-32.033,12.781-58.789,32.212-59.761s36.518,24.209,38.16,56.241a92.181,92.181,0,0,1-1.188,20.488" transform="translate(-486.604 -278.492)" fill="none" stroke="#262433" stroke-miterlimit="10" stroke-width="0.5"/>
                <g id="Group_1769" data-name="Group 1769" transform="translate(0 71.018)">
                  <g id="Group_1767" data-name="Group 1767">
                    <path id="Path_1762" data-name="Path 1762" d="M495.477,366.465s15.851,18.333,40.592,3.055,31.411-44.67,33.3-61.673" transform="translate(-488.517 -307.848)" fill="none" stroke="#262433" stroke-miterlimit="10" stroke-width="1"/>
                    <ellipse id="Ellipse_82" data-name="Ellipse 82" cx="5.111" cy="5.049" rx="5.111" ry="5.049" transform="translate(0 50.789)" fill="#fff" stroke="#262433" stroke-miterlimit="10" stroke-width="1"/>
                  </g>
                  <g id="Group_1768" data-name="Group 1768" transform="translate(11.953 0.677)">
                    <path id="Path_1763" data-name="Path 1763" d="M572.192,365.8s-15.611,18.531-40.551,3.573-31.991-44.266-34.1-61.242" transform="translate(-497.541 -308.128)" fill="none" stroke="#262433" stroke-miterlimit="10" stroke-width="1"/>
                    <path id="Path_1764" data-name="Path 1764" d="M527.035,333.834a5.111,5.111,0,1,0,5.044-5.114A5.081,5.081,0,0,0,527.035,333.834Z" transform="translate(-455.683 -278.904)" fill="#fff" stroke="#262433" stroke-miterlimit="10" stroke-width="1"/>
                  </g>
                </g>
              </g>
            </g>
            <g id="Group_1780" data-name="Group 1780" transform="translate(163.214)">
              <path id="Path_1765" data-name="Path 1765" d="M553.639,288.28s27.344-.515,31.987-11.866,2.581-39.21,2.581-39.21S603.17,235.4,614,225.725s12.9-41.663,0-51.466-35.6,4.645-37.146,7.224S553.639,288.28,553.639,288.28Z" transform="translate(-422.674 -85.28)" fill="#262433" stroke="rgba(0,0,0,0)" stroke-width="1"/>
              <g id="Group_1778" data-name="Group 1778">
                <path id="Path_1766" data-name="Path 1766" d="M611.534,210.278a25.994,25.994,0,1,1-25.994-25.784A25.887,25.887,0,0,1,611.534,210.278Z" transform="translate(-414.288 -65.972)" fill="none" stroke="#262433" stroke-miterlimit="10" stroke-width="2"/>
                <path id="Path_1767" data-name="Path 1767" d="M557.377,162.082h32.652c21.707,0,39.467,20.22,39.467,44.934v50.612c0,1.427-.075,2.835-.189,4.229a20.182,20.182,0,0,1,.556,4.635v27.813a19.81,19.81,0,0,1,.395,3.631l.336,35.3a119.015,119.015,0,0,1,29.323,14.106l-59.471,55.946L551.9,341.644a111.281,111.281,0,0,1,24.463-9.759,19.928,19.928,0,0,1-.1-2.056V302.562H557.377c-21.7,0-39.466-20.22-39.466-44.934V207.016C517.911,182.3,535.672,162.082,557.377,162.082Z" transform="translate(-473.379 -97.779)" fill="#f4f4f4" stroke="#262433" stroke-miterlimit="10" stroke-width="1"/>
                <g id="Group_1774" data-name="Group 1774" transform="translate(49.121 105.715)">
                  <g id="Group_1772" data-name="Group 1772" transform="translate(0 12.698)">
                    <path id="Path_1768" data-name="Path 1768" d="M553.553,191.808a7.359,7.359,0,1,1-7.359-7.359A7.36,7.36,0,0,1,553.553,191.808Z" transform="translate(-492.805 -184.449)" fill="#262433" stroke="rgba(0,0,0,0)" stroke-width="1"/>
                    <path id="Path_1769" data-name="Path 1769" d="M532.373,190.732a6.283,6.283,0,1,1-6.283-6.283A6.284,6.284,0,0,1,532.373,190.732Z" transform="translate(-519.808 -184.449)" fill="#262433" stroke="rgba(0,0,0,0)" stroke-width="1"/>
                  </g>
                  <line id="Line_7" data-name="Line 7" x2="0.239" y2="25.441" transform="translate(23.931 15.848)" fill="#262433" stroke="#262433" stroke-miterlimit="10" stroke-width="0.25"/>
                  <g id="Group_1773" data-name="Group 1773" transform="translate(1.259)">
                    <line id="Line_8" data-name="Line 8" x1="9.828" y1="2.104" transform="translate(52.435)" fill="#262433" stroke="#262433" stroke-miterlimit="10" stroke-width="0.25"/>
                    <line id="Line_9" data-name="Line 9" x1="10.047" y1="0.261" transform="translate(0 6.638)" fill="#262433" stroke="#262433" stroke-miterlimit="10" stroke-width="0.25"/>
                  </g>
                </g>
                <path id="Path_1770" data-name="Path 1770" d="M664.617,268.636s-10.956,14.063-18.02-9.7c-4.4-14.789-2.661-17.554-18.139-16.366s-26.829-14.244-27.862-22.779-45.4,50.281-85.644,10.3,7.739-87.967,35.083-93.642,51.594,15.478,55.206,28.377c0,0,17.542-26.314,58.3-7.224s22.184,61.912,21.154,72.489S668.045,266.732,664.617,268.636Z" transform="translate(-499.503 -135.502)" fill="#262433" stroke="rgba(0,0,0,0)" stroke-width="1"/>
                <g id="Group_1775" data-name="Group 1775" transform="translate(145.26 118.522)">
                  <path id="Path_1771" data-name="Path 1771" d="M611.534,210.278a25.994,25.994,0,1,1-25.994-25.784A25.887,25.887,0,0,1,611.534,210.278Z" transform="translate(-559.548 -184.494)" fill="#f4f4f4" stroke="rgba(0,0,0,0)" stroke-width="1"/>
                  <path id="Path_1772" data-name="Path 1772" d="M564.49,205.779s-1.144-17.513,16.837-15.565" transform="translate(-552.556 -176.591)" fill="none" stroke="#262433" stroke-miterlimit="10" stroke-width="0.275"/>
                </g>
                <g id="Group_1777" data-name="Group 1777" transform="translate(69.721 237.467)">
                  <g id="Group_1776" data-name="Group 1776">
                    <path id="Path_1773" data-name="Path 1773" d="M646.73,246.783l-63.5,67.278-54.906-68.811a121.927,121.927,0,0,1,22.714-11.588l32.408,47.784,42.57-46.02A126.131,126.131,0,0,1,646.73,246.783Z" transform="translate(-528.323 -233.661)" fill="#8ca7f4" stroke="#262433" stroke-miterlimit="10" stroke-width="1"/>
                  </g>
                </g>
              </g>
              <line id="Line_10" data-name="Line 10" x1="11.861" y2="15.845" transform="translate(136.025 129.482)" fill="none" stroke="#262433" stroke-miterlimit="10" stroke-width="0.25"/>
              <line id="Line_11" data-name="Line 11" x1="17.857" y1="19.366" transform="translate(138.165 156.337)" fill="none" stroke="#262433" stroke-miterlimit="10" stroke-width="0.25"/>
              <g id="Group_1779" data-name="Group 1779" transform="translate(21.129 92.869)">
                <ellipse id="Ellipse_83" data-name="Ellipse 83" cx="26.958" cy="31.734" rx="26.958" ry="31.734" transform="translate(58.805)" fill="none" stroke="#262433" stroke-miterlimit="10" stroke-width="0.25"/>
                <ellipse id="Ellipse_84" data-name="Ellipse 84" cx="23.516" cy="30.569" rx="23.516" ry="30.569" transform="translate(0 0)" fill="none" stroke="#262433" stroke-miterlimit="10" stroke-width="0.25"/>
                <path id="Path_1775" data-name="Path 1775" d="M527.678,188.1s7.057-2.765,11.958,1.1" transform="translate(-480.646 -155.082)" fill="none" stroke="#262433" stroke-miterlimit="10" stroke-width="0.25"/>
              </g>
            </g>
          </g>
          <g id="Group_1784" data-name="Group 1784" transform="translate(177.008 368.019)">
            <rect id="Rectangle_599" data-name="Rectangle 599" width="217.753" height="286.134" rx="14.602" transform="matrix(0.973, 0.23, -0.23, 0.973, 82.852, 0)" fill="#262433" stroke="rgba(0,0,0,0)" stroke-width="1"/>
            <g id="Group_1783" data-name="Group 1783" transform="translate(0 101.615)">
              <path id="Path_1776" data-name="Path 1776" d="M648.81,481.236s-126.858-67.336-141.453-92,49.821,21.746,49.821,21.746S509.024,382,513.7,369.7s54.867,26.565,54.867,26.565-53.075-37-46.419-46.006,57.908,32.062,57.908,32.062-54.432-37-46.848-47.694,59.611,31.508,59.611,31.508-28.844-30.487-20.2-36.092,54.359,47.09,116.153,79.016S648.81,481.236,648.81,481.236Z" transform="translate(-505.205 -329.63)" fill="#f4f4f4" stroke="#262433" stroke-miterlimit="10" stroke-width="1"/>
              <g id="Group_1782" data-name="Group 1782" transform="translate(128.72 67.408)">
                <path id="Path_1777" data-name="Path 1777" d="M809.157,405.653C684.3,378.824,612.789,357.494,612.789,357.494L558.413,453.12C669.855,585.2,973.254,602.72,873.389,366.7Z" transform="translate(-558.413 -357.494)" fill="#fff" stroke="rgba(0,0,0,0)" stroke-width="1"/>
                <path id="Path_1778" data-name="Path 1778" d="M873.389,366.7C973.254,602.72,669.855,585.2,558.413,453.12l54.376-95.626s73.575,23.394,196.368,48.159" transform="translate(-558.413 -357.494)" fill="none" stroke="#262433" stroke-miterlimit="10" stroke-width="1"/>
                <path id="Path_1779" data-name="Path 1779" d="M641.178,365.818c-17.242-5.31-28.389-8.324-28.389-8.324L558.413,453.12a226.959,226.959,0,0,0,26.734,26.628Z" transform="translate(-558.413 -357.494)" fill="#fff" stroke="#262433" stroke-miterlimit="10" stroke-width="1"/>
              </g>
            </g>
          </g>
        </g>
        <g id="Group_1810" data-name="Group 1810" transform="translate(404.527)">
          <g id="Group_1790" data-name="Group 1790" transform="translate(0 255.292)">
            <g id="Group_1787" data-name="Group 1787" transform="translate(389.573)">
              <path id="Path_1780" data-name="Path 1780" d="M701.1,549.69c-9.754,32.669-30.054,60.869-54.853,83.907A404.824,404.824,0,0,1,613.6,660.734H443.494q5.349-2.25,10.664-4.558,8.325-3.614,16.552-7.432c30.1-14.358,59.5-30.516,86.8-49.707q10.621-7.464,20.72-15.638a222.5,222.5,0,0,0,31.346-32.824,125.9,125.9,0,0,0,10.1-18.458,91.283,91.283,0,0,0,2.978-12.476,82.184,82.184,0,0,0-.414-10.357,107.764,107.764,0,0,0-5.376-16.155,203.917,203.917,0,0,0-22.177-33.5c-24.269-28.3-52.932-52.775-82.456-75.387-7.466-5.719-15.045-11.29-22.677-16.789-28.8-20.307-58.511-39.326-88.8-57.337-.138-.08-.278-.16-.416-.242L459.112,248.4q45.273,27.826,88.308,58.994c27.707,20.026,54.628,41.373,79.185,65.2a453.059,453.059,0,0,1,37.662,41.651,210.071,210.071,0,0,1,34.522,60.594c3.133,9.04,4.763,18.478,6.145,27.93a81.813,81.813,0,0,1,.556,18.413C704.713,530.874,703.883,540.364,701.1,549.69Z" transform="translate(-382.699 -207.612)" fill="#f4f4f4" stroke="#262433" stroke-miterlimit="10" stroke-width="1"/>
              <g id="Group_1786" data-name="Group 1786">
                <path id="Path_1781" data-name="Path 1781" d="M393.051,231.538s154.732,26.156,286.81,174.037L583.9,498.764,471.423,435.176Z" transform="translate(-393.051 -231.538)" fill="#1db5e4" stroke="#262433" stroke-miterlimit="10" stroke-width="1"/>
                <path id="Path_1782" data-name="Path 1782" d="M564.522,294.618q10.124,10.273,20.125,21.434l-95.962,93.19L460.141,393.1Z" transform="translate(-297.837 -142.015)" fill="#1db5e4" stroke="#262433" stroke-miterlimit="10" stroke-width="1"/>
              </g>
            </g>
            <g id="Group_1789" data-name="Group 1789">
              <path id="Path_1783" data-name="Path 1783" d="M236.686,549.69c9.752,32.669,30.051,60.869,54.853,83.907a405.193,405.193,0,0,0,32.642,27.136H494.289q-5.345-2.25-10.664-4.558-8.321-3.614-16.552-7.432c-30.1-14.358-59.5-30.516-86.8-49.707q-10.621-7.464-20.72-15.638a222.5,222.5,0,0,1-31.345-32.824,125.657,125.657,0,0,1-10.1-18.458,91.275,91.275,0,0,1-2.978-12.476,82.219,82.219,0,0,1,.414-10.357,107.743,107.743,0,0,1,5.375-16.155,203.61,203.61,0,0,1,22.177-33.5c24.267-28.3,52.932-52.775,82.453-75.387,7.468-5.719,15.045-11.29,22.677-16.789,28.8-20.307,58.511-39.326,88.8-57.337.138-.08.276-.16.414-.242L478.671,248.4q-45.269,27.826-88.308,58.994c-27.707,20.026-54.628,41.373-79.183,65.2a452.7,452.7,0,0,0-37.662,41.651,210.013,210.013,0,0,0-34.524,60.594c-3.133,9.04-4.761,18.478-6.145,27.93a81.825,81.825,0,0,0-.556,18.413C233.072,530.874,233.9,540.364,236.686,549.69Z" transform="translate(-232.017 -207.612)" fill="#f4f4f4" stroke="#262433" stroke-miterlimit="10" stroke-width="1"/>
              <g id="Group_1788" data-name="Group 1788" transform="translate(36.257)">
                <path id="Path_1784" data-name="Path 1784" d="M533.814,231.538S379.082,257.694,247,405.575l95.964,93.19,112.473-63.588Z" transform="translate(-247.004 -231.538)" fill="#1db5e4" stroke="#262433" stroke-miterlimit="10" stroke-width="1"/>
                <path id="Path_1785" data-name="Path 1785" d="M267.132,294.618Q257,304.891,247,316.052l95.964,93.19L371.513,393.1Z" transform="translate(-247.004 -142.015)" fill="#1db5e4" stroke="#262433" stroke-miterlimit="10" stroke-width="1"/>
              </g>
            </g>
          </g>
          <g id="Group_1792" data-name="Group 1792" transform="translate(159.682 250.637)">
            <path id="Path_1786" data-name="Path 1786" d="M680.836,687.39q.374-13.528.392-27.262c0-237.765-85.782-430.515-191.6-430.515s-191.6,192.749-191.6,430.515q0,13.742.394,27.262Z" transform="translate(-298.023 -229.614)" fill="#1db5e4" stroke="#262433" stroke-miterlimit="10" stroke-width="1"/>
            <g id="Group_1791" data-name="Group 1791" transform="translate(39.888 198.102)">
              <path id="Path_1787" data-name="Path 1787" d="M314.511,311.5V366.41a28.673,28.673,0,0,0,28.672,28.672h20.8a28.673,28.673,0,0,0,28.672-28.672V311.5Z" transform="translate(-314.511 -311.501)" fill="#1db5e4" stroke="#262433" stroke-miterlimit="10" stroke-width="1"/>
              <rect id="Rectangle_600" data-name="Rectangle 600" width="78.145" height="20.379" transform="translate(0)" fill="#1db5e4" stroke="#262433" stroke-miterlimit="10" stroke-width="1"/>
            </g>
          </g>
          <g id="Group_1798" data-name="Group 1798" transform="translate(212.865 241.652)">
            <path id="Path_1788" data-name="Path 1788" d="M336.1,351.841c7.993-71.482,49.332-125.941,99.126-125.941,55.516,0,100.52,67.7,100.52,151.2q0,3.259-.089,6.488" transform="translate(-297.165 -225.9)" fill="none" stroke="#262433" stroke-miterlimit="10" stroke-width="0.5"/>
            <g id="Group_1793" data-name="Group 1793" transform="translate(206.986 149.142)">
              <circle id="Ellipse_85" data-name="Ellipse 85" cx="20.998" cy="20.998" r="20.998" transform="translate(0 15.33) rotate(-21.41)" fill="silver" stroke="#262433" stroke-miterlimit="10" stroke-width="1"/>
              <path id="Path_1789" data-name="Path 1789" d="M434.774,305.439a11.318,11.318,0,1,1-11.319-11.319A11.32,11.32,0,0,1,434.774,305.439Z" transform="translate(-396.241 -278.225)" fill="#f4f4f4" stroke="#262433" stroke-miterlimit="10" stroke-width="1"/>
            </g>
            <g id="Group_1797" data-name="Group 1797" transform="translate(0 125.398)">
              <path id="Path_1790" data-name="Path 1790" d="M326.281,353.26a96.583,96.583,0,0,1-1.919-14.948c-1.643-32.456,12.79-59.565,32.241-60.55s36.549,24.528,38.194,56.984a94.487,94.487,0,0,1-1.19,20.759" transform="translate(-314.006 -277.735)" fill="none" stroke="#262433" stroke-miterlimit="10" stroke-width="0.5"/>
              <g id="Group_1796" data-name="Group 1796" transform="translate(0 71.957)">
                <g id="Group_1794" data-name="Group 1794">
                  <path id="Path_1791" data-name="Path 1791" d="M322.886,366.87s15.865,18.572,40.628,3.094,31.437-45.261,33.327-62.485" transform="translate(-315.921 -307.479)" fill="none" stroke="#262433" stroke-miterlimit="10" stroke-width="1"/>
                  <path id="Path_1792" data-name="Path 1792" d="M330.235,333.866a5.114,5.114,0,1,1-5.114-5.117A5.115,5.115,0,0,1,330.235,333.866Z" transform="translate(-320.007 -277.293)" fill="#fff" stroke="#262433" stroke-miterlimit="10" stroke-width="1"/>
                </g>
                <g id="Group_1795" data-name="Group 1795" transform="translate(11.963 0.685)">
                  <path id="Path_1793" data-name="Path 1793" d="M399.669,366.19s-15.623,18.778-40.587,3.622-32.02-44.852-34.13-62.05" transform="translate(-324.952 -307.762)" fill="none" stroke="#262433" stroke-miterlimit="10" stroke-width="1"/>
                  <path id="Path_1794" data-name="Path 1794" d="M354.472,333.806a5.116,5.116,0,1,0,5.049-5.18A5.115,5.115,0,0,0,354.472,333.806Z" transform="translate(-283.058 -278.152)" fill="#fff" stroke="#262433" stroke-miterlimit="10" stroke-width="1"/>
                </g>
              </g>
            </g>
          </g>
          <g id="Group_1809" data-name="Group 1809" transform="translate(256.731)">
            <g id="Group_1799" data-name="Group 1799" transform="translate(36.73 198.505)">
              <path id="Path_1795" data-name="Path 1795" d="M410.908,335.765l46.495-62.4a103.218,103.218,0,0,0-23.8-9.994l.3-33.784a21.311,21.311,0,0,0-21.054-21.439l-9.053-.08a21.309,21.309,0,0,0-21.439,21.054l-.322,35.731a111.419,111.419,0,0,0-28.084,14.278Z" transform="translate(-352.429 -208.065)" fill="#f4f4f4" stroke="#262433" stroke-miterlimit="10" stroke-width="1"/>
              <path id="Path_1796" data-name="Path 1796" d="M353.322,245.663l60.819,68.105,52.584-69.658a114.513,114.513,0,0,0-21.753-11.731l-31.038,48.369-40.771-46.584A118.845,118.845,0,0,0,353.322,245.663Z" transform="translate(-353.322 -173.558)" fill="#8ca7f4" stroke="#262433" stroke-miterlimit="10" stroke-width="1"/>
            </g>
            <g id="Group_1808" data-name="Group 1808">
              <path id="Path_1797" data-name="Path 1797" d="M494.982,256.621s19.775-26.154,10.969-61.614-74.838-53.892-82.746-51.691-38.073,3.7-38.073,3.7-36.15-.135-40.829,35.378,11.177,77.08,12.352,82.753S472.6,296.066,494.982,256.621Z" transform="translate(-330.615 -101.702)" fill="#262433" stroke="rgba(0,0,0,0)" stroke-width="1"/>
              <g id="Group_1804" data-name="Group 1804" transform="translate(0 146.399)">
                <g id="Group_1801" data-name="Group 1801" transform="translate(149.552)">
                  <path id="Path_1798" data-name="Path 1798" d="M438.253,204.941a19.153,19.153,0,1,1-19.721-18.405A19.075,19.075,0,0,1,438.253,204.941Z" transform="translate(-399.958 -186.526)" fill="#f4f4f4" stroke="#262433" stroke-miterlimit="10" stroke-width="1"/>
                  <g id="Group_1800" data-name="Group 1800" transform="translate(7.361 8.448)">
                    <path id="Path_1799" data-name="Path 1799" d="M405.993,203.391a10.214,10.214,0,0,1-.027-1.217c.012-.438.041-.876.092-1.311.019-.179-.031-.486,0-.019a1.88,1.88,0,0,1,.063-.4c.048-.29.1-.578.172-.864a13.6,13.6,0,0,1,.542-1.744c.148-.39-.123.249.056-.131.063-.133.123-.266.191-.4a9.835,9.835,0,0,1,.539-.941c.085-.128.174-.254.264-.38.237-.339-.157.167.114-.145a10.5,10.5,0,0,1,.8-.839c.123-.111.254-.215.377-.324.249-.225-.2.14-.019.012.07-.048.138-.1.208-.15a8.6,8.6,0,0,1,1.055-.629l.252-.121.206-.094c-.179.075-.189.08-.034.017.223-.08.445-.167.673-.24a11.623,11.623,0,0,1,1.49-.358c.034,0,.479-.073.15-.029.14-.019.281-.034.421-.048.3-.029.59-.046.885-.058a18.6,18.6,0,0,1,2.107.046,1.493,1.493,0,0,0,1.481-1.478,1.511,1.511,0,0,0-1.481-1.481c-4.178-.3-8.441.745-11.068,4.2a13.508,13.508,0,0,0-2.47,7.468,11.411,11.411,0,0,0,.007,1.652,1.52,1.52,0,0,0,1.481,1.478,1.49,1.49,0,0,0,1.478-1.478Z" transform="translate(-403.001 -190.018)" fill="#0c0c0c" stroke="rgba(0,0,0,0)" stroke-width="1"/>
                  </g>
                </g>
                <g id="Group_1803" data-name="Group 1803" transform="translate(0 1.534)">
                  <path id="Path_1800" data-name="Path 1800" d="M338.148,206.741a19.153,19.153,0,1,0,18.565-19.571A19.075,19.075,0,0,0,338.148,206.741Z" transform="translate(-338.139 -187.16)" fill="#f4f4f4" stroke="#262433" stroke-miterlimit="10" stroke-width="1"/>
                  <g id="Group_1802" data-name="Group 1802" transform="translate(15.362 8.461)">
                    <path id="Path_1801" data-name="Path 1801" d="M360.189,203.386c.162-4.882-2.356-10.011-7.006-11.9a14.864,14.864,0,0,0-7.616-.615,1.486,1.486,0,0,0-1.033,1.819,1.52,1.52,0,0,0,1.819,1.033,11.649,11.649,0,0,1,5.54.423c.1.034.636.256.312.111.174.077.348.16.52.247a9.49,9.49,0,0,1,1.028.629c.346.239-.111-.119.2.155.131.114.261.223.387.341a10.314,10.314,0,0,1,.719.769c.053.061.1.126.155.191-.227-.281-.1-.133-.053-.068.09.136.186.261.276.4a10.1,10.1,0,0,1,.527.9c.073.138.14.276.206.414.049.1.244.583.073.145.114.288.223.573.319.866a14.109,14.109,0,0,1,.426,1.6c.048.237.089.474.126.711.027.164.169.474,0,0a1.556,1.556,0,0,1,.039.336,11.03,11.03,0,0,1,.077,1.5c-.065,1.9,2.893,1.9,2.956,0Z" transform="translate(-344.489 -190.658)" fill="#0c0c0c" stroke="rgba(0,0,0,0)" stroke-width="1"/>
                  </g>
                </g>
              </g>
              <path id="Rectangle_601" data-name="Rectangle 601" d="M18.166,0h84.692a18.167,18.167,0,0,1,18.167,18.167V142.116a18.167,18.167,0,0,1-18.167,18.167H18.167A18.167,18.167,0,0,1,0,142.116V18.166A18.166,18.166,0,0,1,18.166,0Z" transform="translate(32.295 63.635) rotate(-0.579)" fill="#f4f4f4" stroke="#262433" stroke-miterlimit="10" stroke-width="1"/>
              <g id="Group_1807" data-name="Group 1807" transform="translate(48.691 125.595)">
                <line id="Line_12" data-name="Line 12" x1="0.239" y2="25.442" transform="translate(50.595 14.359)" fill="#262433" stroke="#262433" stroke-miterlimit="10" stroke-width="0.25"/>
                <g id="Group_1805" data-name="Group 1805">
                  <line id="Line_13" data-name="Line 13" y1="3.676" x2="9.355" fill="#262433" stroke="#262433" stroke-miterlimit="10" stroke-width="0.25"/>
                  <line id="Line_14" data-name="Line 14" y1="0.261" x2="10.047" transform="translate(79.104 3.546)" fill="#262433" stroke="#262433" stroke-miterlimit="10" stroke-width="0.25"/>
                </g>
                <g id="Group_1806" data-name="Group 1806" transform="translate(2.922 8.708)">
                  <path id="Path_1802" data-name="Path 1802" d="M390.15,188.831a7.01,7.01,0,1,0,6.708-7.3A7.013,7.013,0,0,0,390.15,188.831Z" transform="translate(-315.949 -181.526)" fill="#0c0c0c" stroke="rgba(0,0,0,0)" stroke-width="1"/>
                  <path id="Path_1803" data-name="Path 1803" d="M359.481,188.831a7.01,7.01,0,1,0,6.708-7.3A7.009,7.009,0,0,0,359.481,188.831Z" transform="translate(-359.474 -181.526)" fill="#0c0c0c" stroke="rgba(0,0,0,0)" stroke-width="1"/>
                </g>
              </g>
              <path id="Path_1805" data-name="Path 1805" d="M348.931,201.227c4.236-5.922,19.266-15.759,31-20.933-2.446-54.509,143.4-85.378,112.739-6.825,0,0,48.161-20.486,56.239,3.636,19.649,58.682-120.561,77.1-160.225,25.031-8.332,3.109-18.577,9.1-20.6,20.12-3.52,19.136-8.455,61.445-8.455,61.445a111.006,111.006,0,0,0-6.331-18.754C349.323,256.4,342.818,209.779,348.931,201.227Z" transform="translate(-326.378 -126.01)" fill="#262433" stroke="rgba(0,0,0,0)" stroke-width="1"/>
            </g>
          </g>
        </g>
      </g>
    </g>
  </g>
</svg>
