<svg xmlns="http://www.w3.org/2000/svg" xmlns:xlink="http://www.w3.org/1999/xlink" width="32" height="33" viewBox="0 0 32 33">
  <defs>
    <clipPath id="clip-path">
      <rect id="user_user_check_Background_Mask_" data-name="user / user_check (Background/Mask)" width="32" height="33" transform="translate(0.478 0)" fill="none"/>
    </clipPath>
  </defs>
  <g id="user_user_check" data-name="user / user_check" transform="translate(-0.478 0)">
    <g id="user_user_check-2" data-name="user / user_check">
      <rect id="user_user_check_Background_Mask_2" data-name="user / user_check (Background/Mask)" width="32" height="33" transform="translate(0.478 0)" fill="none"/>
      <g id="user_user_check-3" data-name="user / user_check" clip-path="url(#clip-path)">
        <path id="user_user_check-4" data-name="user / user_check" d="M2.651,19.885H0a7.953,7.953,0,0,1,15.906,0H13.255a5.3,5.3,0,1,0-10.6,0Zm15.9-4.76h0L14.963,11.54l1.874-1.874,1.713,1.713,5.7-5.689,1.872,1.877-7.571,7.558ZM7.954,10.6a5.3,5.3,0,1,1,5.3-5.3A5.309,5.309,0,0,1,7.954,10.6Zm0-7.954A2.651,2.651,0,1,0,10.6,5.421l0,.532V5.3A2.654,2.654,0,0,0,7.954,2.651Z" transform="translate(2.651 5.302)" fill="#1db5e4"/>
      </g>
    </g>
  </g>
</svg>
